<?xml version="1.0" encoding="utf-8"?>
<!-- Generator: Adobe Illustrator 21.1.0, SVG Export Plug-In . SVG Version: 6.00 Build 0)  -->
<svg version="1.1" id="Layer_1" xmlns="http://www.w3.org/2000/svg" xmlns:xlink="http://www.w3.org/1999/xlink" x="0px" y="0px"
	 viewBox="0 0 3000 3000" style="enable-background:new 0 0 3000 3000;" xml:space="preserve">
<style type="text/css">
	.st0{fill:#E8BB60;}
</style>
<path class="st0" d="M1745.2,1186.9l-30.7-14.7V674.3l110.6-81.7l-79-8.2l374.2-179.8l-184.5,138.7l72.8,11.1l-188,160.8v630.4
	L1745.2,1186.9z M1179.3,2066.9v217.9l-188,160.8l72.8,11.1l-184.5,138.7l374.2-179.8l-79-8.2l110.6-81.7v-369.6l-45.8,101.8
	L1179.3,2066.9z M2292.9,935.4l-120.6-32.7l58.1,55.2L2292.9,935.4z M2611,1044.7l-104.3,53.8l-93.8-54.8l-236.8,99.3l96.4,577
	l-142.3,351.4l-341.8-50.6l-263.9-586.2h-10.9l200.9,703.1v-181.5l45.8,101.8l60.3,8.9v217.9l108.9,8.1l-215.1,71.6L1285.4,862.4
	v309.8l-30.7,14.7l-75.5,158.7V715.2l-108.9-8.1l215.1-71.6v0v0l146.2,511.7l68.4-32.8l214.5,103l214,449.8l41.2-8.9l-28.3-725.5
	L2148.8,781l296,135.3l-14.5,103.7l76.4,39.8l73.2-63l-18.7,47.3L2611,1044.7z M1526.2,1418.2l68-75.9h-106.8l21.7,75.9H1526.2z
	 M1793.9,1993l42.6-99.3l-226.6-544.5l-70.4,78.6L1793.9,1993z M2112.2,2052.2l-47.8-118.4l-213.9-31.1l-44.6,104.1L2112.2,2052.2z
	 M2252.5,1725.8l-83.3-11.1l-90.2,211.8l46.1,114.1L2252.5,1725.8z M2160.1,1145.9l-88.2-3.7l99.3,556.2l83,11.1L2160.1,1145.9z
	 M2379.8,1039.9h-151.9l-139,86.6l76.7,3.2L2379.8,1039.9z M2426.9,926.1l-276.2-126.2L1958,940.9l28.5,730.5l-67.2,14.5
	l-217.1-456.3l-202.3-97.1l-63.8,30.6l46.5,162.7h135.2l233.2,560.4l213.9,31.1l90.6-212.6L2053,1129.6l170.2-106h190.1
	L2426.9,926.1z M1431.1,1493.2l6.9,24.4l-226.5,503.1l-341.8,50.6l-142.3-351.4l96.4-577l-236.8-99.3l-93.8,54.8L389,1044.7
	l49.7-0.7L420,996.7l73.2,63l76.4-39.8l-14.5-103.7l296-135.3l207.5,151.9l-28.3,725.5l41.2,8.9l214-449.8l59.3-28.5l4.5,16
	l-51.6,24.7L1080.7,1686l-67.2-14.5l28.5-730.5L849.3,799.8L573.1,926.1l13.6,97.5h190.1l170.2,106l-102.7,575.2l90.6,212.6
	l213.9-31.1l233.2-560.4l8.2,23.5l-0.2-0.3l-226.6,544.5l42.6,99.3L1431.1,1493.2z M834.5,1129.8l76.7-3.2l-139-86.6H620.2
	L834.5,1129.8z M745.8,1709.6l83-11.1l99.3-556.2l-88.2,3.7L745.8,1709.6z M874.9,2040.6l46.1-114.1l-90.2-211.8l-83.3,11.1
	L874.9,2040.6z M1194.2,2006.8l-44.6-104.1l-213.9,31.1l-47.8,118.4L1194.2,2006.8z M827.7,902.7l-120.6,32.7l62.4,22.5L827.7,902.7
	z"/>
</svg>
